Coordinates
version=1
nRows=14
nColumns=24
inDegrees=yes

Units are S.I. units (second, meters, Newtons, ...)
Angles are in degrees.

endheader
time	pelvis_tilt	pelvis_list	pelvis_rotation	pelvis_tx	pelvis_ty	pelvis_tz	hip_flexion_r	hip_adduction_r	hip_rotation_r	knee_angle_r	ankle_angle_r	subtalar_angle_r	mtp_angle_r	hip_flexion_l	hip_adduction_l	hip_rotation_l	knee_angle_l	ankle_angle_l	subtalar_angle_l	mtp_angle_l	lumbar_extension	lumbar_bending	lumbar_rotation
      0.41300000	     -2.56119311	      1.35089296	      4.65282602	     -0.74735049	      0.89451324	      0.30132166	     32.61323580	     -1.07867389	     -7.80606024	    -27.12359830	      8.15745784	      5.86922937	      0.81786777	    -14.16866402	      2.20864695	      1.09848394	     -8.19053009	     15.29984352	      0.44123766	      1.09009235	     -6.29774703	     -2.66110553	     -9.18540903
      0.41716667	     -2.60971382	      1.34946646	      4.82838158	     -0.74153088	      0.89323676	      0.30145251	     32.53364108	     -1.00294455	     -7.53963400	    -27.04571599	      8.13234903	      5.74057293	      4.14698899	    -14.06933658	      2.08874090	      1.05339741	     -9.11171479	     15.54175321	      0.73945441	      6.32701832	     -6.22479336	     -2.64618830	     -9.10769753
      0.42133333	     -2.68405427	      1.36839108	      5.04359662	     -0.73571484	      0.89194103	      0.30150532	     32.49554240	     -0.98597744	     -7.36291376	    -27.11938325	      8.28454932	      5.77107870	      4.13176011	    -13.91353746	      1.99418529	      1.15298661	    -10.10168476	     15.78623530	      0.97853174	      6.41148067	     -6.11978063	     -2.64487343	     -9.28416686
      0.42550000	     -2.74937036	      1.36491704	      5.24044234	     -0.72987947	      0.89068507	      0.30162816	     32.43478251	     -0.92137035	     -7.15974483	    -27.24082239	      8.36458451	      5.63247632	      4.12309548	    -13.72542750	      1.87039801	      1.18547072	    -11.17837460	     16.03571719	      1.30211804	      6.55594617	     -6.02530055	     -2.61433657	     -9.34793128
      0.42966667	     -2.82504605	      1.36167395	      5.44025815	     -0.72403166	      0.88945039	      0.30177886	     32.37313065	     -0.85281322	     -6.96539214	    -27.41537985	      8.42176181	      5.47212093	      4.12615122	    -13.48921022	      1.74862871	      1.25200593	    -12.33013514	     16.25190634	      1.55572407	      6.71990819	     -5.90422960	     -2.61257562	     -9.38621203
      0.43383333	     -2.86971192	      1.33993857	      5.62664590	     -0.71817243	      0.88826401	      0.30198150	     32.28523098	     -0.75058477	     -6.78198423	    -27.67516288	      8.50545397	      5.22685083	      4.14811341	    -13.23339763	      1.59397692	      1.21270331	    -13.58895769	     16.45682333	      1.97890070	      7.09602235	     -5.84384705	     -2.55631662	     -9.43046295
      0.43800000	     -2.95940786	      1.32705378	      5.80596182	     -0.71231943	      0.88704671	      0.30220163	     32.25527589	     -0.65824596	     -6.61234030	    -28.00793196	      8.52199141	      4.93652701	      4.18513519	    -12.89269803	      1.46117286	      1.21807791	    -14.91516433	     16.56450617	      2.24514345	      7.53989076	     -5.71691248	     -2.51751385	     -9.44145680
      0.44216667	     -3.00120235	      1.26300909	      5.99009456	     -0.70644013	      0.88595739	      0.30245750	     32.14021314	     -0.50552088	     -6.48235394	    -28.31642139	      8.48942651	      4.64668822	      4.30100292	    -12.54068808	      1.25565322	      1.16602166	    -16.36333050	     16.71656867	      2.59827381	      8.67880283	     -5.64571071	     -2.42620935	     -9.43288882
      0.44633333	     -3.11660198	      1.26897711	      6.16939734	     -0.70060157	      0.88480063	      0.30269622	     32.14434197	     -0.42994193	     -6.32700083	    -28.76517461	      8.56512914	      4.30416894	      4.32030651	    -12.12669913	      1.17720848	      1.39071622	    -17.76716148	     16.63633692	      2.50847601	      8.84152422	     -5.49123319	     -2.41868179	     -9.36612421
      0.45050000	     -3.19008558	      1.22262727	      6.31066487	     -0.69472066	      0.88370865	      0.30307086	     32.09926205	     -0.26709581	     -6.16783070	    -29.22627449	      8.59998211	      3.86700901	      4.41197644	    -11.65331161	      0.99165548	      1.24725942	    -19.37326377	     16.56592416	      2.92272077	      9.63083161	     -5.36625716	     -2.34934137	     -9.35516514
      0.45466667	     -3.26409166	      1.17427029	      6.45473078	     -0.68885536	      0.88271364	      0.30341529	     32.04236817	     -0.10712036	     -6.02856214	    -29.68538619	      8.59702985	      3.44736765	      4.92531578	    -11.16874236	      0.84103106	      1.31956414	    -20.97612772	     16.35406476	      2.82580801	     14.29717891	     -5.25595992	     -2.29155983	     -9.24585940
      0.45883333	     -3.36243064	      1.14419014	      6.61407619	     -0.68303375	      0.88170825	      0.30372749	     32.04227692	      0.01184493	     -5.93405938	    -30.24591395	      8.73402375	      3.11176021	      4.93043193	    -10.60278194	      0.72031878	      1.44478587	    -22.68219901	     16.12281615	      2.81182326	     14.34807368	     -5.11867131	     -2.23595086	     -9.15572602
      0.46300000	     -3.45230982	      1.10067512	      6.72774343	     -0.67720772	      0.88073863	      0.30414792	     32.04115372	      0.17523457	     -5.80097949	    -30.82432059	      8.82500259	      2.68803078	      4.93738342	     -9.98365364	      0.57234313	      1.41167334	    -24.50248864	     15.83484027	      2.89477204	     14.48075949	     -4.97868104	     -2.19504645	     -9.05371395
      0.46716667	     -3.52450932	      1.03090867	      6.84138053	     -0.67138213	      0.87986210	      0.30456906	     32.01770701	      0.36590415	     -5.68135431	    -31.41240973	      8.98780315	      2.26934392	      4.94660756	     -9.33814720	      0.39915586	      1.40847285	    -26.38146837	     15.46093267	      2.93511498	     14.66965628	     -4.86426233	     -2.09883863	     -8.92270312
